<?xml version="1.0" encoding="UTF-8" standalone="no"?>
<svg
   xmlns:dc="http://purl.org/dc/elements/1.1/"
   xmlns:cc="http://creativecommons.org/ns#"
   xmlns:rdf="http://www.w3.org/1999/02/22-rdf-syntax-ns#"
   xmlns:svg="http://www.w3.org/2000/svg"
   xmlns="http://www.w3.org/2000/svg"
   xmlns:sodipodi="http://sodipodi.sourceforge.net/DTD/sodipodi-0.dtd"
   xmlns:inkscape="http://www.inkscape.org/namespaces/inkscape"
   width="220.875"
   height="29.562"
   viewBox="0 0 220.875 29.562"
   id="svg2"
   version="1.1"
   inkscape:version="0.91 r13725"
   sodipodi:docname="logo.svg">
  <metadata
     id="metadata14">
    <rdf:RDF>
      <cc:Work
         rdf:about="">
        <dc:format>image/svg+xml</dc:format>
        <dc:type
           rdf:resource="http://purl.org/dc/dcmitype/StillImage" />
      </cc:Work>
    </rdf:RDF>
  </metadata>
  <defs
     id="defs12" />
  <sodipodi:namedview
     pagecolor="#ffffff"
     bordercolor="#666666"
     borderopacity="1"
     objecttolerance="10"
     gridtolerance="10"
     guidetolerance="10"
     inkscape:pageopacity="0"
     inkscape:pageshadow="2"
     inkscape:window-width="1366"
     inkscape:window-height="744"
     id="namedview10"
     showgrid="false"
     inkscape:zoom="1.3491794"
     inkscape:cx="174.53028"
     inkscape:cy="74.689683"
     inkscape:window-x="0"
     inkscape:window-y="24"
     inkscape:window-maximized="1"
     inkscape:current-layer="svg2" />
  <flowRoot
     xml:space="preserve"
     id="flowRoot3394"
     style="font-style:normal;font-weight:normal;font-size:40px;line-height:125%;font-family:sans-serif;letter-spacing:0px;word-spacing:0px;fill:#000000;fill-opacity:1;stroke:none;stroke-width:1px;stroke-linecap:butt;stroke-linejoin:miter;stroke-opacity:1;"><flowRegion
       id="flowRegion3396"><rect
         id="rect3398"
         width="202.34521"
         height="55.589344"
         x="43.730286"
         y="28.079618"
         style="fill:#000000;fill-opacity:1;" /></flowRegion><flowPara
       id="flowPara3400"
       style="fill:#3cadb0;fill-opacity:0">elkar</flowPara></flowRoot>  <text
     xml:space="preserve"
     style="font-style:normal;font-weight:normal;font-size:40px;line-height:125%;font-family:sans-serif;letter-spacing:0px;word-spacing:0px;fill:#000000;fill-opacity:1;stroke:none;stroke-width:1px;stroke-linecap:butt;stroke-linejoin:miter;stroke-opacity:1"
     x="54.106953"
     y="28.079618"
     id="text4202"
     sodipodi:linespacing="125%"><tspan
       sodipodi:role="line"
       id="tspan4204"
       x="54.106953"
       y="28.079618"
       style="font-size:35px;fill:#3cadb2;fill-opacity:0.87843137">Elkar</tspan></text>
  <path
     style="fill:#3cadb2;fill-opacity:0.87843137"
     id="path4222"
     d="m 2.5126655,26.426656 c 0.058946,-1.380324 0.028576,-2.761869 0.027175,-4.142851 -0.0098,-0.975586 -0.032089,-1.951197 -0.02968,-2.926849 -0.00749,-0.678789 -0.00804,-1.357548 -0.015732,-2.036303 0.015573,-0.689062 -0.015096,-1.37812 0.024913,-2.066122 C 2.648366,14.473618 3.133673,13.889587 3.5286918,13.241731 3.9968325,12.634684 4.5372054,12.091078 4.9794139,11.464645 5.464451,11.051984 5.8291211,10.576106 6.2859516,10.148518 6.6668171,9.6712086 7.1589113,9.3168526 7.6468749,8.9343147 10.993205,6.6789507 13.830768,5.2525486 18.010841,2.9057454 c 0.134867,-0.075718 0.311593,-0.042074 0.451008,-0.1090488 0.128589,-0.061774 0.222483,-0.178624 0.333724,-0.2679359 0.136837,-0.065267 0.273673,-0.1305333 0.410509,-0.1958 0.570623,-0.3559656 1.21242,-0.4419022 1.865386,-0.5290669 0.465744,0.028143 0.933281,0.039627 1.400107,0.041782 0.615959,0.011894 1.232025,0.01357 1.848056,0.022534 0.75162,0.00138 1.503202,-0.00108 2.254782,-0.00752 0.736193,-0.080974 1.297944,0.3899763 1.673794,0.9805291 0.349821,0.6438726 0.370386,1.387151 0.38397,2.1028038 0.004,0.8853988 -0.01917,1.7704799 -0.0028,2.6558052 -0.0018,0.5752126 0.0099,1.150043 0.01371,1.7251104 -0.01367,0.7129044 -0.01703,1.4258804 -0.0242,2.1388954 -0.0064,0.891438 -0.0083,1.78324 0.0043,2.674659 0.02116,0.4865 0.01134,0.973093 0.028,1.459706 -0.0039,0.513681 -0.02271,1.027814 -0.02079,1.542049 -0.0023,0.635946 -0.005,1.272321 0.01027,1.908169 0.0053,0.371238 0.0013,0.742285 0.01629,1.113531 0.0301,0.03194 0.841421,0.236795 1.113517,0.377666 1.028719,0.325489 2.066127,0.564687 3.098208,0.880441 1.078194,0.335871 2.214197,0.415563 3.336269,0.460119 0.829394,0.02454 1.65905,0.0052 2.488558,0.0049 0.572173,-0.01184 1.144351,-0.0087 1.716491,-0.02271 0.52346,-0.07167 0.720883,0.702048 0.822172,1.121978 0.0042,0.108842 0.0083,0.217684 0.01252,0.326526 0,0 -9.8295,5.036829 -9.8295,5.036829 l 0,0 c 7.4e-5,-0.0698 1.47e-4,-0.139608 2.21e-4,-0.209412 0.05477,-0.380265 0.514857,0.402176 0.04408,0.231276 -0.557931,-0.01091 -1.115782,-0.0025 -1.673739,-0.01103 -0.832808,0.0016 -1.666705,-0.01536 -2.496562,-0.09017 -1.173613,-0.108098 -2.342313,-0.292503 -3.462723,-0.671989 -1.069501,-0.312616 -2.178492,-0.49697 -3.205487,-0.947558 -0.82572,-0.253112 -1.489929,-0.622046 -1.841756,-1.453873 0.01457,-0.376784 0.01117,-0.753364 0.01629,-1.130135 0.01498,-0.639345 0.01274,-1.279195 0.01027,-1.918632 0.0019,-0.507194 -0.01691,-1.014232 -0.02079,-1.520862 0.01641,-0.496119 0.0071,-0.992207 0.02799,-1.488218 0.01244,-0.892867 0.01076,-1.786111 0.0042,-2.678993 -0.0072,-0.705234 -0.01073,-1.410418 -0.02385,-2.115547 0.0048,-0.582648 0.01945,-1.164893 0.02215,-1.747695 0.02344,-0.877241 0.0143,-1.754884 0.0088,-2.6322723 -0.0077,-0.5052164 0.02826,-1.0395692 -0.108716,-1.5281041 -0.349408,-0.1976347 -0.670157,-0.064855 -1.066018,-0.089652 -0.744519,-0.00666 -1.489036,-0.00927 -2.233598,-0.00987 -0.631913,0.00691 -1.263758,0.00524 -1.895657,0.00899 -0.424903,-0.00124 -0.866287,-0.00593 -1.271001,0.1371315 -0.580226,0.1600246 -1.092728,0.4466758 -1.624946,0.7234897 -5.8593857,3.1419942 11.319511,-7.8106862 7.304755,-4.3061662 -0.216,0.1277005 -0.597798,0.270225 -0.76668,0.4484117 -0.257458,0.2716438 -0.265155,0.4554652 -0.706831,0.5082146 -0.126953,0.1749467 -0.198423,0.401966 -0.371422,0.531559 -0.07415,0.055544 -0.19422,0.010847 -0.270655,0.0632 -0.273997,0.1876662 -0.367149,0.6513987 -0.628401,0.8563813 -0.421716,0.2076939 -0.435843,0.4810604 -0.760326,0.7892155 -0.287706,0.273229 -0.59782,0.4470678 -0.7439,0.8722773 -0.455395,0.3276947 -0.929225,1.059723 -1.199181,1.553855 -0.381631,0.434185 -0.07201,1.24241 -0.152405,1.787998 -0.0077,0.684099 -0.0083,1.368203 -0.01573,2.052335 0.0024,0.985732 -0.02002,1.971426 -0.02968,2.957094 -0.0014,1.371743 -0.03224,2.7441 0.02717,4.115159 0,0 -9.7984945,4.992582 -9.7984945,4.992582 z"
     inkscape:connector-curvature="0" />
</svg>
